/* XPM */
static char * jz_64_xpm[] = {
"64 64 256 2",
"  	c None",
". 	c #FFFFFF",
"+ 	c #FFFFCC",
"@ 	c #FFFF99",
"# 	c #FFFF66",
"$ 	c #FFFF33",
"% 	c #FFFF00",
"& 	c #FFCCFF",
"* 	c #FFCCCC",
"= 	c #FFCC99",
"- 	c #FFCC66",
"; 	c #FFCC33",
"> 	c #FFCC00",
", 	c #FF99FF",
"' 	c #FF99CC",
") 	c #FF9999",
"! 	c #FF9966",
"~ 	c #FF9933",
"{ 	c #FF9900",
"] 	c #FF66FF",
"^ 	c #FF66CC",
"/ 	c #FF6699",
"( 	c #FF6666",
"_ 	c #FF6633",
": 	c #FF6600",
"< 	c #FF33FF",
"[ 	c #FF33CC",
"} 	c #FF3399",
"| 	c #FF3366",
"1 	c #FF3333",
"2 	c #FF3300",
"3 	c #FF00FF",
"4 	c #FF00CC",
"5 	c #FF0099",
"6 	c #FF0066",
"7 	c #FF0033",
"8 	c #FF0000",
"9 	c #CCFFFF",
"0 	c #CCFFCC",
"a 	c #CCFF99",
"b 	c #CCFF66",
"c 	c #CCFF33",
"d 	c #CCFF00",
"e 	c #CCCCFF",
"f 	c #CCCCCC",
"g 	c #CCCC99",
"h 	c #CCCC66",
"i 	c #CCCC33",
"j 	c #CCCC00",
"k 	c #CC99FF",
"l 	c #CC99CC",
"m 	c #CC9999",
"n 	c #CC9966",
"o 	c #CC9933",
"p 	c #CC9900",
"q 	c #CC66FF",
"r 	c #CC66CC",
"s 	c #CC6699",
"t 	c #CC6666",
"u 	c #CC6633",
"v 	c #CC6600",
"w 	c #CC33FF",
"x 	c #CC33CC",
"y 	c #CC3399",
"z 	c #CC3366",
"A 	c #CC3333",
"B 	c #CC3300",
"C 	c #CC00FF",
"D 	c #CC00CC",
"E 	c #CC0099",
"F 	c #CC0066",
"G 	c #CC0033",
"H 	c #CC0000",
"I 	c #99FFFF",
"J 	c #99FFCC",
"K 	c #99FF99",
"L 	c #99FF66",
"M 	c #99FF33",
"N 	c #99FF00",
"O 	c #99CCFF",
"P 	c #99CCCC",
"Q 	c #99CC99",
"R 	c #99CC66",
"S 	c #99CC33",
"T 	c #99CC00",
"U 	c #9999FF",
"V 	c #9999CC",
"W 	c #999999",
"X 	c #999966",
"Y 	c #999933",
"Z 	c #999900",
"` 	c #9966FF",
" .	c #9966CC",
"..	c #996699",
"+.	c #996666",
"@.	c #996633",
"#.	c #996600",
"$.	c #9933FF",
"%.	c #9933CC",
"&.	c #993399",
"*.	c #993366",
"=.	c #993333",
"-.	c #993300",
";.	c #9900FF",
">.	c #9900CC",
",.	c #990099",
"'.	c #990066",
").	c #990033",
"!.	c #990000",
"~.	c #66FFFF",
"{.	c #66FFCC",
"].	c #66FF99",
"^.	c #66FF66",
"/.	c #66FF33",
"(.	c #66FF00",
"_.	c #66CCFF",
":.	c #66CCCC",
"<.	c #66CC99",
"[.	c #66CC66",
"}.	c #66CC33",
"|.	c #66CC00",
"1.	c #6699FF",
"2.	c #6699CC",
"3.	c #669999",
"4.	c #669966",
"5.	c #669933",
"6.	c #669900",
"7.	c #6666FF",
"8.	c #6666CC",
"9.	c #666699",
"0.	c #666666",
"a.	c #666633",
"b.	c #666600",
"c.	c #6633FF",
"d.	c #6633CC",
"e.	c #663399",
"f.	c #663366",
"g.	c #663333",
"h.	c #663300",
"i.	c #6600FF",
"j.	c #6600CC",
"k.	c #660099",
"l.	c #660066",
"m.	c #660033",
"n.	c #660000",
"o.	c #33FFFF",
"p.	c #33FFCC",
"q.	c #33FF99",
"r.	c #33FF66",
"s.	c #33FF33",
"t.	c #33FF00",
"u.	c #33CCFF",
"v.	c #33CCCC",
"w.	c #33CC99",
"x.	c #33CC66",
"y.	c #33CC33",
"z.	c #33CC00",
"A.	c #3399FF",
"B.	c #3399CC",
"C.	c #339999",
"D.	c #339966",
"E.	c #339933",
"F.	c #339900",
"G.	c #3366FF",
"H.	c #3366CC",
"I.	c #336699",
"J.	c #336666",
"K.	c #336633",
"L.	c #336600",
"M.	c #3333FF",
"N.	c #3333CC",
"O.	c #333399",
"P.	c #333366",
"Q.	c #333333",
"R.	c #333300",
"S.	c #3300FF",
"T.	c #3300CC",
"U.	c #330099",
"V.	c #330066",
"W.	c #330033",
"X.	c #330000",
"Y.	c #00FFFF",
"Z.	c #00FFCC",
"`.	c #00FF99",
" +	c #00FF66",
".+	c #00FF33",
"++	c #00FF00",
"@+	c #00CCFF",
"#+	c #00CCCC",
"$+	c #00CC99",
"%+	c #00CC66",
"&+	c #00CC33",
"*+	c #00CC00",
"=+	c #0099FF",
"-+	c #0099CC",
";+	c #009999",
">+	c #009966",
",+	c #009933",
"'+	c #009900",
")+	c #0066FF",
"!+	c #0066CC",
"~+	c #006699",
"{+	c #006666",
"]+	c #006633",
"^+	c #006600",
"/+	c #0033FF",
"(+	c #0033CC",
"_+	c #003399",
":+	c #003366",
"<+	c #003333",
"[+	c #003300",
"}+	c #0000FF",
"|+	c #0000CC",
"1+	c #000099",
"2+	c #000066",
"3+	c #000033",
"4+	c #000000",
"5+	c #030302",
"6+	c #4F4F3B",
"7+	c #E4E4AB",
"8+	c #9D9D76",
"9+	c #92926E",
"0+	c #6D6D52",
"a+	c #64644B",
"b+	c #444433",
"c+	c #040403",
"d+	c #B4B488",
"e+	c #A8A87F",
"f+	c #888867",
"g+	c #39392B",
"h+	c #BFBF91",
"i+	c #808061",
"j+	c #76765A",
"k+	c #595944",
"l+	c #D6D6A5",
"m+	c #2E2E25",
"n+	c #26261F",
"o+	c #181814",
"p+	c #12120F",
"q+	c #1F1F1A",
"r+	c #0D0D0B",
"s+	c #090908",
"t+	c #BDBDB6",
"u+	c #B2B2AC",
"v+	c #94948F",
"w+	c #A6A6A1",
"x+	c #4B4B49",
"y+	c #8B8B88",
"z+	c #82827F",
"A+	c #585856",
"B+	c #797977",
"C+	c #3F3F3E",
"D+	c #6F6F6E",
"E+	c #C3C3C3",
"F+	c #060606",
"G+	c #010101",
"                                                                                                                                ",
"                                                                                                                                ",
"                                                                                                                                ",
"                                              E+t+u+z+Q.F+o+A+y+x+                                                              ",
"                                          E+t+y+4+G+4+4+4+  4+4+4+4+                                                            ",
"                                      E+t+x+4+4+4+4+  4+4+      4+4+4+                                                          ",
"                                  t+E+D+4+4+4+  4+4+4+4+          4+4+4+                                                        ",
"                                  W A+4+4+4+4+4+4+                  4+4+                                                        ",
"                                p+G+4+4+4+4+4+                        4+4+                                                      ",
"                                  4+4+4+4+4+                            4+4+                                                    ",
"                                    4+4+p+                              4+s+4+                                                  ",
"                                      4+B+x+                              4+4+                                                  ",
"                                        0.v+n+F+                            5+4+                                                ",
"                                        y+y+Q.r+4+                          4+o+4+                                              ",
"                                      u+w+0.n+q+5+4+                          4+4+                                              ",
"                                    u+u+y+m+F+p+o+4+4+                          4+4+                                            ",
"                                  0.B+B+Q.F+4+G+r+p+4+4+                        4+F+4+                                          ",
"                                    G+4+4+4+4+4+G+s+F+4+4+                        4+4+4+                                        ",
"                                    4+4+4+4+4+4+4+G+s+4+4+4+                        4+4+                                        ",
"                                      4+4+4+4+4+4+4+5+s+4+4+                        4+F+4+                                      ",
"                                          G+4+4+4+4+4+5+F+4+4+                        4+4+4+                                    ",
"                                          b+q+F+4+4+4+4+5+G+4+4+                      4+4+4+                                    ",
"              v+0.x+x+x+F+          t+g h+h+i+g+s+F+s+s+c+F+4+4+r+    u+g               s+5+4+      w+v+y+g                     ",
"    w+x+r+g+i+      l+m+j+          6+n+A+y+m+    g+g+g+m+n+o+F+o+0+x+k+m+y+A+            m+o+    i+    j+n+9+                  ",
"  8+h+      l+l+g     j+l+e+      Q.    l+v+4+g   8+y+B+j+a+g+q+m+k+b+  g 7+0.o+    w+z+8+j+6+b+8+j+    e+9+G+                  ",
"    y+7+l+7+t+0.G+    g e+6+      r+    g 0.4+e+e+B+8+e+i+0.0+g+b+C+k+  8+8+m+4+d+  o+7+h+v+m+0+i+g+      k+s+                  ",
"    0.u+w+w+0.4+b+h+l+w+4+g+    8+a+    g 0.4+h+8+4+  8+d+D+6+k+k+F+6+g+e+D+4+0+e+e+6+  h+e+p+9+a+r+      C+b+e+                ",
"    m+4+4+G+o+4+h+d+g A+4+e+    x+      y+F+o+8+8+r+    g 0.n+0+a+o+b+g+d+0.4+g 9+m+    d+z+4+8+0+4+      m+i+f+                ",
"      g+j+l+h+6+8+g v+G+h+a+    r+      A+4+9+9+0+0+    d+x+n+j+k+b+g+b+8+C+4+d+9+4+    g B+4+8+a+4+j+    m+l+6+                ",
"        f+9+4+9+d+W 4+n+9+m+    4+    7+x+4+h+8+p+      D+4+0+9+g+k+m+6+f+p+b+8+8+m+    7+0.4+8+k+n+0+    C+7+6+                ",
"          k+f+h+h+B+4+h+a+      q+    7+Q.4+g e+4+    7+0.4+h+f+o+6+m+6+k+r+9+e+m+8+    e+r+n+i+b+b+k+k+  A+7+n+                ",
"          Q.g 7+y+4+9+e+j+      b+      4+G+l+m+0+    7+x+4+8+i+p+j+n+b+b+4+i+d+4+      B+4+e+k+6+6+k+6+  j+g q+e+              ",
"        Q.  l+C+4+r+0+G+0.0.    6+      q+4+4+o+      W 4+j+j+j+Q.8+g+n+j+4+G+4+i+    7+D+4+e+g+  6+b+b+  6+f+4+a+r+p+b+0.k+    ",
"        6+  e+4+n+9+9+8+g 7+e+7+4+        d+9+j+    7+B+4+d+6+  k+9+0+q+g+a+0+k+6+  g w+4+6+j+    a+g+g+    n+6+9+      7+9+    ",
"      C+        d+9+X h+g r+b+g s+8+              7+W G+a+j+      c+e+  q+n+m+n+b+8+l+C+4+d+b+      o+g+g+    8+8+e+h+l+7+h+k+  ",
"      C+        h+g t+v+4+4+k+w+u+4+t+u+u+w+W w+l+W G+n+8+g+      g+b+d+j+b+b+k+i+t+C+4+d+a+        0.0+0+8+l+l+l+t+t+u+w+G+q+  ",
"      A+l+l+7+l+u+z+4+4+j+u+y+B+D+B+4+x+f+9+W W Q.4+6+8+b+          6+p+B+f+8+w+z+4+4+d+0+n+        0.d+h+u+w+W z+x+r+4+4+4+4+  ",
"        A+y+B+r+4+4+9+u+v+b+r+c+r+n+6+a+n+4+4+4+b+f+6+m+r+            d+6+G+G+G+o+j+9+k+            a+4+G+G+G+4+4+4+g+0+9+d+i+  ",
"        j+4+4+6+g 8+0.A+o+5+4+4+G+s+n+g+k+a+j+0+k+n+p+c+                  f+a+a+6+g+n+p+              i+m+f+d+d+8+9+j+a+k+b+m+  ",
"          e+8+j+6+m+p+q+4+4+4+4+4+4+G+F+p+o+q+o+r+5+4+4+4+                  p+n+r+c+G+                b+g+b+b+g+m+n+            ",
"                      x+4+4+4+                      4+4+4+                  n+m+4+4+4+                o+F+c+G+                  ",
"                      W x+4+4+                        4+4+4+                D+x+4+4+4+                o+4+4+                    ",
"                  B+v+v+C+4+4+                          4+4+q+x+            u+4+4+4+4+                  4+4+                    ",
"                  c+s+q+p+4+4+4+                          4+4+4+A+y+W u+E+u+m+4+4+4+                    F+4+                    ",
"                    4+4+4+4+4+4+                              4+4+4+4+4+G+4+4+4+4+4+                    o+4+                    ",
"                      4+4+4+4+4+4+                                  4+4+4+4+4+4+4+4+                    q+4+                    ",
"                        4+4+4+4+4+4+                                      4+4+4+                      0.r+4+                    ",
"                          4+4+4+5+4+4+                                                                y+4+4+                    ",
"                          4+4+4+4+r+4+4+                                                              W 4+4+                    ",
"                            4+4+4+4+o+F+4+                                                          w+B+4+4+                    ",
"                                4+4+4+o+o+r+                                                        u+G+4+4+                    ",
"                                  4+4+4+F+m+n+q+                                                  t+B+4+4+4+                    ",
"                                    4+4+4+G+m+Q.Q.                                              E+W G+4+4+4+                    ",
"                                      4+4+4+4+G+C+C+C+                                      E+E+W G+4+4+4+4+                    ",
"                                          4+4+4+4+G+x+A+0.                              E+E+E+D+G+4+4+4+4+                      ",
"                                            4+4+4+4+4+G+C+0.B+z+z+                  E+E+t+y+4+4+4+4+4+4+                        ",
"                                                4+4+4+4+4+4+4+C+D+y+v+v+W w+w+u+u+u+y+n+4+4+4+4+4+4+4+4+                        ",
"                                                    4+4+4+4+4+4+4+4+4+4+4+G+G+G+4+G+4+4+4+4+4+4+4+4+                            ",
"                                                          4+4+4+4+4+4+4+4+4+4+4+4+4+4+4+4+4+4+4+4+                              ",
"                                                                  4+4+4+4+4+4+4+4+4+4+4+4+4+                                    ",
"                                                                                                                                ",
"                                                                                                                                ",
"                                                                                                                                ",
"                                                                                                                                "};
